<mxfile host="65bd71144e">
    <diagram id="3NsqLRMD7KeVsb26FcYq" name="Page-1">
        <mxGraphModel dx="2198" dy="1438" grid="1" gridSize="10" guides="1" tooltips="1" connect="1" arrows="1" fold="1" page="1" pageScale="1" pageWidth="1169" pageHeight="1654" math="0" shadow="0">
            <root>
                <mxCell id="0"/>
                <mxCell id="1" parent="0"/>
                <mxCell id="2" value="Serveur" style="shape=umlLifeline;perimeter=lifelinePerimeter;whiteSpace=wrap;html=1;container=1;collapsible=0;recursiveResize=0;outlineConnect=0;" vertex="1" parent="1">
                    <mxGeometry x="450" y="40" width="120" height="480" as="geometry"/>
                </mxCell>
                <mxCell id="3" value="" style="html=1;points=[];perimeter=orthogonalPerimeter;fillColor=#808080;" vertex="1" parent="2">
                    <mxGeometry x="55" y="90" width="10" height="30" as="geometry"/>
                </mxCell>
                <mxCell id="46" value="" style="html=1;points=[];perimeter=orthogonalPerimeter;fillColor=#808080;" vertex="1" parent="2">
                    <mxGeometry x="55" y="330" width="10" height="30" as="geometry"/>
                </mxCell>
                <mxCell id="4" value="Client" style="shape=umlLifeline;perimeter=lifelinePerimeter;whiteSpace=wrap;html=1;container=1;collapsible=0;recursiveResize=0;outlineConnect=0;" vertex="1" parent="1">
                    <mxGeometry x="130" y="40" width="120" height="480" as="geometry"/>
                </mxCell>
                <mxCell id="5" value="" style="html=1;points=[];perimeter=orthogonalPerimeter;" vertex="1" parent="4">
                    <mxGeometry x="55" y="90" width="10" height="230" as="geometry"/>
                </mxCell>
                <mxCell id="9" value="" style="html=1;verticalAlign=bottom;labelBackgroundColor=none;endArrow=block;endFill=1;" edge="1" parent="4" target="2">
                    <mxGeometry width="160" relative="1" as="geometry">
                        <mxPoint x="65" y="100" as="sourcePoint"/>
                        <mxPoint x="260" y="100" as="targetPoint"/>
                    </mxGeometry>
                </mxCell>
                <mxCell id="19" value="Saisie des attributs" style="text;html=1;strokeColor=none;fillColor=none;align=center;verticalAlign=middle;whiteSpace=wrap;rounded=0;" vertex="1" parent="4">
                    <mxGeometry x="-50" y="135" width="90" height="35" as="geometry"/>
                </mxCell>
                <mxCell id="40" value="Nouvelle saisie" style="text;html=1;strokeColor=none;fillColor=none;align=center;verticalAlign=middle;whiteSpace=wrap;rounded=0;" vertex="1" parent="4">
                    <mxGeometry x="-40" y="290" width="90" height="35" as="geometry"/>
                </mxCell>
                <mxCell id="37" value="" style="html=1;verticalAlign=bottom;labelBackgroundColor=none;endArrow=block;endFill=1;rounded=0;exitX=-0.021;exitY=0.348;exitDx=0;exitDy=0;exitPerimeter=0;" edge="1" parent="4" source="5" target="5">
                    <mxGeometry width="160" relative="1" as="geometry">
                        <mxPoint x="50" y="170" as="sourcePoint"/>
                        <mxPoint x="50" y="200" as="targetPoint"/>
                        <Array as="points">
                            <mxPoint x="-30" y="170"/>
                            <mxPoint x="-30" y="200"/>
                        </Array>
                    </mxGeometry>
                </mxCell>
                <mxCell id="39" value="" style="html=1;verticalAlign=bottom;labelBackgroundColor=none;endArrow=block;endFill=1;rounded=0;exitX=-0.025;exitY=0.739;exitDx=0;exitDy=0;exitPerimeter=0;" edge="1" parent="4" source="5" target="5">
                    <mxGeometry width="160" relative="1" as="geometry">
                        <mxPoint x="50" y="260" as="sourcePoint"/>
                        <mxPoint x="50" y="290" as="targetPoint"/>
                        <Array as="points">
                            <mxPoint x="-30" y="260"/>
                            <mxPoint x="-30" y="290"/>
                        </Array>
                    </mxGeometry>
                </mxCell>
                <mxCell id="6" value="Thread" style="shape=umlLifeline;perimeter=lifelinePerimeter;whiteSpace=wrap;html=1;container=1;collapsible=0;recursiveResize=0;outlineConnect=0;" vertex="1" parent="1">
                    <mxGeometry x="770" y="40" width="120" height="480" as="geometry"/>
                </mxCell>
                <mxCell id="7" value="" style="html=1;points=[];perimeter=orthogonalPerimeter;fillColor=#808080;" vertex="1" parent="6">
                    <mxGeometry x="55" y="90" width="10" height="70" as="geometry"/>
                </mxCell>
                <mxCell id="14" value="" style="html=1;verticalAlign=bottom;labelBackgroundColor=none;endArrow=block;endFill=1;" edge="1" parent="6" source="3">
                    <mxGeometry width="160" relative="1" as="geometry">
                        <mxPoint x="-230" y="110" as="sourcePoint"/>
                        <mxPoint x="59.5" y="110" as="targetPoint"/>
                    </mxGeometry>
                </mxCell>
                <mxCell id="16" value="" style="html=1;points=[];perimeter=orthogonalPerimeter;fillColor=#808080;" vertex="1" parent="6">
                    <mxGeometry x="55" y="200" width="10" height="60" as="geometry"/>
                </mxCell>
                <mxCell id="20" value="" style="html=1;verticalAlign=bottom;labelBackgroundColor=none;endArrow=block;endFill=1;rounded=0;" edge="1" parent="6" target="7">
                    <mxGeometry width="160" relative="1" as="geometry">
                        <mxPoint x="65" y="130" as="sourcePoint"/>
                        <mxPoint x="65" y="150" as="targetPoint"/>
                        <Array as="points">
                            <mxPoint x="100" y="130"/>
                            <mxPoint x="100" y="150"/>
                        </Array>
                    </mxGeometry>
                </mxCell>
                <mxCell id="23" value="" style="html=1;verticalAlign=bottom;labelBackgroundColor=none;endArrow=block;endFill=1;rounded=0;exitX=0.998;exitY=0.161;exitDx=0;exitDy=0;exitPerimeter=0;" edge="1" parent="6" source="16" target="16">
                    <mxGeometry width="160" relative="1" as="geometry">
                        <mxPoint x="70" y="210" as="sourcePoint"/>
                        <mxPoint x="80" y="230" as="targetPoint"/>
                        <Array as="points">
                            <mxPoint x="100" y="210"/>
                            <mxPoint x="100" y="230"/>
                        </Array>
                    </mxGeometry>
                </mxCell>
                <mxCell id="42" value="" style="html=1;points=[];perimeter=orthogonalPerimeter;fillColor=#808080;" vertex="1" parent="6">
                    <mxGeometry x="55" y="290" width="10" height="60" as="geometry"/>
                </mxCell>
                <mxCell id="43" value="" style="html=1;verticalAlign=bottom;labelBackgroundColor=none;endArrow=block;endFill=1;rounded=0;exitX=0.95;exitY=0.334;exitDx=0;exitDy=0;exitPerimeter=0;" edge="1" parent="6" source="42" target="42">
                    <mxGeometry width="160" relative="1" as="geometry">
                        <mxPoint x="80" y="310" as="sourcePoint"/>
                        <mxPoint x="80" y="330" as="targetPoint"/>
                        <Array as="points">
                            <mxPoint x="100" y="310"/>
                            <mxPoint x="100" y="330"/>
                        </Array>
                    </mxGeometry>
                </mxCell>
                <mxCell id="10" value="Connexion" style="text;html=1;strokeColor=none;fillColor=none;align=center;verticalAlign=middle;whiteSpace=wrap;rounded=0;" vertex="1" parent="1">
                    <mxGeometry x="320" y="110" width="60" height="30" as="geometry"/>
                </mxCell>
                <mxCell id="12" value="Envoi d'une série d'objets" style="text;html=1;strokeColor=none;fillColor=none;align=center;verticalAlign=middle;whiteSpace=wrap;rounded=0;" vertex="1" parent="1">
                    <mxGeometry x="280" y="175" width="140" height="30" as="geometry"/>
                </mxCell>
                <mxCell id="15" value="Création d'un thread" style="text;html=1;strokeColor=none;fillColor=none;align=center;verticalAlign=middle;whiteSpace=wrap;rounded=0;" vertex="1" parent="1">
                    <mxGeometry x="612" y="120" width="125" height="30" as="geometry"/>
                </mxCell>
                <mxCell id="18" value="" style="html=1;verticalAlign=bottom;labelBackgroundColor=none;endArrow=block;endFill=1;exitX=1.008;exitY=0.522;exitDx=0;exitDy=0;exitPerimeter=0;" edge="1" parent="1" source="5" target="6">
                    <mxGeometry width="160" relative="1" as="geometry">
                        <mxPoint x="220" y="250" as="sourcePoint"/>
                        <mxPoint x="810" y="247" as="targetPoint"/>
                    </mxGeometry>
                </mxCell>
                <mxCell id="21" value="Suppression des objets de la liste" style="text;html=1;strokeColor=none;fillColor=none;align=center;verticalAlign=middle;whiteSpace=wrap;rounded=0;" vertex="1" parent="1">
                    <mxGeometry x="880" y="160" width="190" height="20" as="geometry"/>
                </mxCell>
                <mxCell id="13" value="" style="html=1;verticalAlign=bottom;labelBackgroundColor=none;endArrow=block;endFill=1;exitX=-0.008;exitY=0.571;exitDx=0;exitDy=0;exitPerimeter=0;" edge="1" parent="1" source="7" target="5">
                    <mxGeometry x="-0.008" width="160" relative="1" as="geometry">
                        <mxPoint x="820" y="170" as="sourcePoint"/>
                        <mxPoint x="200" y="170" as="targetPoint"/>
                        <mxPoint as="offset"/>
                    </mxGeometry>
                </mxCell>
                <mxCell id="24" value="Validation des attributs" style="text;html=1;strokeColor=none;fillColor=none;align=center;verticalAlign=middle;whiteSpace=wrap;rounded=0;" vertex="1" parent="1">
                    <mxGeometry x="260" y="220" width="140" height="30" as="geometry"/>
                </mxCell>
                <mxCell id="36" value="Envoi d'un autre objet de la liste" style="text;html=1;strokeColor=none;fillColor=none;align=center;verticalAlign=middle;whiteSpace=wrap;rounded=0;" vertex="1" parent="1">
                    <mxGeometry x="255" y="290" width="190" height="30" as="geometry"/>
                </mxCell>
                <mxCell id="38" value="Insertion dans une nouvelle liste" style="text;html=1;strokeColor=none;fillColor=none;align=center;verticalAlign=middle;whiteSpace=wrap;rounded=0;" vertex="1" parent="1">
                    <mxGeometry x="870" y="250" width="110" height="20" as="geometry"/>
                </mxCell>
                <mxCell id="41" value="" style="html=1;verticalAlign=bottom;labelBackgroundColor=none;endArrow=block;endFill=1;exitX=1.023;exitY=0.913;exitDx=0;exitDy=0;exitPerimeter=0;" edge="1" parent="1" source="5" target="42">
                    <mxGeometry width="160" relative="1" as="geometry">
                        <mxPoint x="200" y="340" as="sourcePoint"/>
                        <mxPoint x="814.75" y="340" as="targetPoint"/>
                    </mxGeometry>
                </mxCell>
                <mxCell id="44" value="Validation" style="text;html=1;strokeColor=none;fillColor=none;align=center;verticalAlign=middle;whiteSpace=wrap;rounded=0;" vertex="1" parent="1">
                    <mxGeometry x="260" y="340" width="140" height="20" as="geometry"/>
                </mxCell>
                <mxCell id="45" value="Insertion" style="text;html=1;strokeColor=none;fillColor=none;align=center;verticalAlign=middle;whiteSpace=wrap;rounded=0;" vertex="1" parent="1">
                    <mxGeometry x="870" y="350" width="70" height="20" as="geometry"/>
                </mxCell>
                <mxCell id="47" value="" style="html=1;verticalAlign=bottom;labelBackgroundColor=none;endArrow=block;endFill=1;entryX=0.5;entryY=0.333;entryDx=0;entryDy=0;entryPerimeter=0;" edge="1" parent="1" source="42" target="46">
                    <mxGeometry width="160" relative="1" as="geometry">
                        <mxPoint x="750" y="380" as="sourcePoint"/>
                        <mxPoint x="520" y="380" as="targetPoint"/>
                    </mxGeometry>
                </mxCell>
                <mxCell id="35" value="" style="html=1;verticalAlign=bottom;labelBackgroundColor=none;endArrow=block;endFill=1;exitX=-0.037;exitY=0.833;exitDx=0;exitDy=0;exitPerimeter=0;" edge="1" parent="1" source="16" target="5">
                    <mxGeometry x="-0.008" width="160" relative="1" as="geometry">
                        <mxPoint x="822" y="290" as="sourcePoint"/>
                        <mxPoint x="197.54" y="290.03" as="targetPoint"/>
                        <mxPoint as="offset"/>
                    </mxGeometry>
                </mxCell>
                <mxCell id="48" value="Déconnexion de l'utilisateur et suppression du thread" style="text;html=1;strokeColor=none;fillColor=none;align=center;verticalAlign=middle;whiteSpace=wrap;rounded=0;" vertex="1" parent="1">
                    <mxGeometry x="560" y="380" width="210" height="30" as="geometry"/>
                </mxCell>
            </root>
        </mxGraphModel>
    </diagram>
</mxfile>